<svg width="23" height="23" viewBox="0 0 23 23" fill="none" xmlns="http://www.w3.org/2000/svg">
<path d="M21.075 9.09021H14.0438V2.05896C14.0438 1.19617 13.3441 0.49646 12.4813 0.49646H10.9188C10.056 0.49646 9.35629 1.19617 9.35629 2.05896V9.09021H2.32504C1.46225 9.09021 0.762543 9.78992 0.762543 10.6527V12.2152C0.762543 13.078 1.46225 13.7777 2.32504 13.7777H9.35629V20.809C9.35629 21.6718 10.056 22.3715 10.9188 22.3715H12.4813C13.3441 22.3715 14.0438 21.6718 14.0438 20.809V13.7777H21.075C21.9378 13.7777 22.6375 13.078 22.6375 12.2152V10.6527C22.6375 9.78992 21.9378 9.09021 21.075 9.09021Z" fill="black"/>
</svg>
