<svg width="172" height="172" viewBox="0 0 172 172" fill="none" xmlns="http://www.w3.org/2000/svg">
<mask id="path-1-inside-1_477_3" fill="white">
<path d="M172 86C172 103.009 166.956 119.636 157.506 133.779C148.057 147.922 134.625 158.945 118.911 165.454C103.196 171.963 85.9046 173.666 69.2222 170.348C52.5399 167.029 37.2161 158.838 25.1888 146.811C13.1615 134.784 4.97079 119.46 1.65247 102.778C-1.66586 86.0954 0.0372239 68.8037 6.54636 53.0892C13.0555 37.3748 24.0783 23.9434 38.221 14.4936C52.3636 5.04381 68.9908 -2.02833e-07 86 0L86 86H172Z"/>
</mask>
<path d="M172 86C172 103.009 166.956 119.636 157.506 133.779C148.057 147.922 134.625 158.945 118.911 165.454C103.196 171.963 85.9046 173.666 69.2222 170.348C52.5399 167.029 37.2161 158.838 25.1888 146.811C13.1615 134.784 4.97079 119.46 1.65247 102.778C-1.66586 86.0954 0.0372239 68.8037 6.54636 53.0892C13.0555 37.3748 24.0783 23.9434 38.221 14.4936C52.3636 5.04381 68.9908 -2.02833e-07 86 0L86 86H172Z" stroke="#4A5CFF" stroke-width="38" mask="url(#path-1-inside-1_477_3)"/>
</svg>
