<svg width="602" height="715" viewBox="0 0 602 715" fill="none" xmlns="http://www.w3.org/2000/svg">
<path d="M0 322.944L602 322.944M602 250.635L-3.40949e-06 250.635M602 178.79L-6.79712e-06 178.79M-1.04033e-05 102.309L602 102.309M-1.38128e-05 30L602 29.9999" stroke="black" stroke-opacity="0.04"/>
<path d="M0 678L602 678M602 605.691L-3.40949e-06 605.691M602 533.845L-6.79712e-06 533.846M-1.04033e-05 457.365L602 457.365M-1.38128e-05 385.056L602 385.056" stroke="black" stroke-opacity="0.04"/>
<path d="M200.667 0V715M280.524 715V0M359.869 715V0M444.333 0V715M524.191 0V715" stroke="black" stroke-opacity="0.04"/>
</svg>
