<svg width="221" height="60" viewBox="0 0 221 60" fill="none" xmlns="http://www.w3.org/2000/svg">
<path d="M14.4207 33.75H8.80937V11.3477H0.353149V5.74219H22.8572V11.3477H14.4207V33.75ZM42.3204 33.75H41.0255L38.9457 30.8788C38.4356 31.3346 37.8928 31.7644 37.3174 32.168C36.7548 32.5586 36.1598 32.9036 35.5319 33.2031C34.904 33.4896 34.2565 33.7175 33.5895 33.8868C32.9356 34.056 32.2684 34.1406 31.5882 34.1406C30.1102 34.1406 28.7172 33.8932 27.4091 33.3985C26.1143 32.9036 24.9763 32.1875 23.9953 31.25C23.0273 30.2995 22.2622 29.1406 21.6996 27.7735C21.1372 26.4063 20.8561 24.8502 20.8561 23.1055C20.8561 21.4779 21.1372 19.987 21.6996 18.6327C22.2622 17.2656 23.0273 16.0938 23.9953 15.1173C24.9763 14.1406 26.1143 13.3854 27.4091 12.8515C28.7172 12.3047 30.1102 12.0312 31.5882 12.0312C32.2684 12.0312 32.942 12.1159 33.6091 12.2852C34.2762 12.4544 34.9237 12.6888 35.5515 12.9882C36.1793 13.2877 36.7745 13.6394 37.3369 14.043C37.9124 14.4466 38.4487 14.8827 38.9457 15.3515L41.0255 12.8711H42.3204V33.75ZM36.9248 23.1055C36.9248 22.3762 36.781 21.6731 36.4932 20.9961C36.2186 20.306 35.8393 19.7005 35.3552 19.1797C34.8713 18.6459 34.3023 18.2226 33.6483 17.9101C33.0074 17.5846 32.3207 17.4219 31.5882 17.4219C30.8558 17.4219 30.1624 17.5456 29.5086 17.793C28.8677 18.0404 28.3052 18.405 27.8211 18.8868C27.3503 19.3685 26.9776 19.9675 26.7028 20.6836C26.4282 21.3867 26.2908 22.194 26.2908 23.1055C26.2908 24.0169 26.4282 24.8307 26.7028 25.5469C26.9776 26.25 27.3503 26.8425 27.8211 27.3243C28.3052 27.806 28.8677 28.1706 29.5086 28.418C30.1624 28.6654 30.8558 28.789 31.5882 28.789C32.3207 28.789 33.0074 28.6327 33.6483 28.3203C34.3023 27.9948 34.8713 27.5716 35.3552 27.0507C35.8393 26.5168 36.2186 25.9115 36.4932 25.2343C36.781 24.5442 36.9248 23.8346 36.9248 23.1055ZM57.9575 33.75H45.7146V28.4375H57.9575C58.3238 28.4375 58.6377 28.3072 58.8993 28.0468C59.1609 27.7865 59.2917 27.474 59.2917 27.1093C59.2917 26.7318 59.1609 26.4844 58.8993 26.3673C58.6377 26.25 58.3238 26.1913 57.9575 26.1913H52.3855C51.4569 26.1913 50.587 26.0156 49.7759 25.664C48.965 25.3125 48.2587 24.8373 47.657 24.2382C47.0554 23.6262 46.578 22.9166 46.2248 22.1094C45.8847 21.3021 45.7146 20.4363 45.7146 19.5117C45.7146 18.5872 45.8847 17.7214 46.2248 16.914C46.578 16.1067 47.0554 15.4036 47.657 14.8047C48.2587 14.2057 48.965 13.737 49.7759 13.3985C50.587 13.0469 51.4569 12.8711 52.3855 12.8711H63.2354V18.1836H52.3855C52.0193 18.1836 51.7054 18.3138 51.4438 18.5742C51.1821 18.8346 51.0513 19.1471 51.0513 19.5117C51.0513 19.8894 51.1821 20.2149 51.4438 20.4882C51.7054 20.7487 52.0193 20.8789 52.3855 20.8789H57.9575C58.8732 20.8789 59.7364 21.0351 60.5475 21.3476C61.3584 21.6471 62.0647 22.0702 62.6663 22.6173C63.268 23.164 63.7454 23.8216 64.0987 24.5899C64.4518 25.3581 64.6285 26.1979 64.6285 27.1093C64.6285 28.0339 64.4518 28.8997 64.0987 29.707C63.7454 30.5013 63.268 31.2043 62.6663 31.8163C62.0647 32.4154 61.3584 32.8906 60.5475 33.2422C59.7364 33.5808 58.8732 33.75 57.9575 33.75ZM72.8885 33.75H67.4929V4.51172H72.8885V22.9492L80.8736 12.8711H87.0344L80.0693 21.582L87.0344 33.75H80.8736L76.6162 26.1523L72.8885 31.0743V33.75ZM101.534 33.75H95.922V11.3477H87.466V5.74219H109.97V11.3477H101.534V33.75ZM117.446 28.6327C117.655 28.6979 117.864 28.7435 118.073 28.7695C118.283 28.7825 118.492 28.789 118.701 28.789C119.224 28.789 119.728 28.7175 120.212 28.5742C120.696 28.431 121.147 28.2291 121.566 27.9687C121.997 27.6952 122.377 27.3697 122.704 26.9922C123.044 26.6015 123.318 26.1718 123.528 25.7031L127.452 29.6289C126.955 30.332 126.379 30.9635 125.725 31.5235C125.084 32.0833 124.384 32.5586 123.626 32.9493C122.88 33.3399 122.089 33.6327 121.252 33.8281C120.427 34.0365 119.578 34.1406 118.701 34.1406C117.223 34.1406 115.831 33.8673 114.522 33.3202C113.227 32.7735 112.089 32.0118 111.108 31.0351C110.14 30.0586 109.376 28.8997 108.812 27.5586C108.25 26.2044 107.969 24.72 107.969 23.1055C107.969 21.4519 108.25 19.9414 108.812 18.5742C109.376 17.207 110.14 16.0416 111.108 15.0781C112.089 14.1146 113.227 13.3659 114.522 12.832C115.831 12.2981 117.223 12.0312 118.701 12.0312C119.578 12.0312 120.434 12.1354 121.272 12.3438C122.109 12.5521 122.9 12.8515 123.645 13.2423C124.404 13.6327 125.111 14.1146 125.764 14.6875C126.418 15.2474 126.994 15.8789 127.49 16.582L117.446 28.6327ZM120.192 17.6367C119.944 17.5456 119.695 17.487 119.447 17.461C119.211 17.4349 118.963 17.4219 118.701 17.4219C117.969 17.4219 117.275 17.5586 116.622 17.832C115.981 18.0925 115.418 18.47 114.934 18.9649C114.463 19.4596 114.091 20.0586 113.816 20.7618C113.541 21.4519 113.404 22.2331 113.404 23.1055C113.404 23.3007 113.41 23.5221 113.423 23.7695C113.45 24.0169 113.483 24.2709 113.522 24.5313C113.574 24.7786 113.633 25.0195 113.698 25.2538C113.764 25.4883 113.849 25.6966 113.953 25.8789L120.192 17.6367ZM140.735 33.75C139.44 33.75 138.223 33.5091 137.085 33.0274C135.948 32.5325 134.947 31.862 134.083 31.0156C133.233 30.1563 132.56 29.1601 132.063 28.0273C131.578 26.8945 131.337 25.6836 131.337 24.3945V18.1836H128.727V12.8711H131.337V4.51172H136.673V12.8711H144.795V18.1836H136.673V24.3945C136.673 24.9544 136.778 25.4817 136.987 25.9765C137.196 26.4584 137.485 26.8815 137.85 27.2461C138.217 27.6106 138.648 27.9036 139.144 28.125C139.642 28.3333 140.171 28.4375 140.735 28.4375H144.795V33.75H140.735ZM153.173 33.75H147.817V4.51172H153.173V13.75C153.815 13.2682 154.475 12.9297 155.154 12.7344C155.835 12.526 156.528 12.4219 157.235 12.4219C158.529 12.4219 159.747 12.6693 160.884 13.164C162.022 13.6459 163.01 14.3164 163.847 15.1758C164.696 16.0221 165.365 17.0182 165.848 18.164C166.345 19.2969 166.594 20.5077 166.594 21.7969V33.75H161.198V21.7969H161.237C161.237 21.25 161.133 20.7356 160.923 20.2539C160.715 19.7591 160.426 19.3294 160.061 18.9649C159.694 18.6003 159.269 18.3138 158.785 18.1055C158.301 17.8971 157.784 17.793 157.235 17.793C156.673 17.793 156.143 17.8971 155.646 18.1055C155.148 18.3138 154.718 18.6003 154.351 18.9649C153.984 19.3294 153.697 19.7591 153.487 20.2539C153.279 20.7356 153.173 21.25 153.173 21.7969V33.75ZM178.778 28.6327C178.987 28.6979 179.196 28.7435 179.405 28.7695C179.616 28.7825 179.823 28.789 180.034 28.789C180.557 28.789 181.061 28.7175 181.544 28.5742C182.029 28.431 182.48 28.2291 182.898 27.9687C183.329 27.6952 183.708 27.3697 184.036 26.9922C184.376 26.6015 184.651 26.1718 184.86 25.7031L188.784 29.6289C188.287 30.332 187.712 30.9635 187.058 31.5235C186.416 32.0833 185.717 32.5586 184.958 32.9493C184.212 33.3399 183.421 33.6327 182.584 33.8281C181.76 34.0365 180.91 34.1406 180.034 34.1406C178.556 34.1406 177.162 33.8673 175.854 33.3202C174.56 32.7735 173.421 32.0118 172.44 31.0351C171.472 30.0586 170.707 28.8997 170.145 27.5586C169.582 26.2044 169.301 24.72 169.301 23.1055C169.301 21.4519 169.582 19.9414 170.145 18.5742C170.707 17.207 171.472 16.0416 172.44 15.0781C173.421 14.1146 174.56 13.3659 175.854 12.832C177.162 12.2981 178.556 12.0312 180.034 12.0312C180.91 12.0312 181.766 12.1354 182.603 12.3438C183.442 12.5521 184.233 12.8515 184.977 13.2423C185.736 13.6327 186.443 14.1146 187.097 14.6875C187.751 15.2474 188.326 15.8789 188.823 16.582L178.778 28.6327ZM181.524 17.6367C181.277 17.5456 181.028 17.487 180.779 17.461C180.543 17.4349 180.294 17.4219 180.034 17.4219C179.302 17.4219 178.608 17.5586 177.954 17.832C177.313 18.0925 176.75 18.47 176.266 18.9649C175.796 19.4596 175.423 20.0586 175.148 20.7618C174.874 21.4519 174.736 22.2331 174.736 23.1055C174.736 23.3007 174.742 23.5221 174.755 23.7695C174.782 24.0169 174.815 24.2709 174.853 24.5313C174.906 24.7786 174.966 25.0195 175.031 25.2538C175.096 25.4883 175.181 25.6966 175.286 25.8789L181.524 17.6367ZM196.887 33.75H191.53V12.832H192.825L194.591 15.3125C195.454 14.5312 196.436 13.9323 197.534 13.5156C198.634 13.086 199.772 12.8711 200.948 12.8711H205.677V18.1836H200.948C200.385 18.1836 199.856 18.2877 199.36 18.4961C198.862 18.7044 198.431 18.9909 198.064 19.3555C197.699 19.72 197.41 20.1498 197.201 20.6445C196.991 21.1394 196.887 21.6666 196.887 22.2265V33.75ZM212.21 31.7577C212.21 32.2265 212.125 32.6692 211.955 33.086C211.784 33.4896 211.55 33.8411 211.249 34.1406C210.948 34.4401 210.595 34.6745 210.19 34.8438C209.784 35.026 209.346 35.1172 208.875 35.1172C208.417 35.1172 207.979 35.026 207.561 34.8438C207.155 34.6745 206.796 34.4401 206.482 34.1406C206.181 33.8411 205.938 33.4896 205.755 33.086C205.585 32.6692 205.5 32.2265 205.5 31.7577C205.5 31.3021 205.585 30.8724 205.755 30.4687C205.938 30.0651 206.181 29.7135 206.482 29.414C206.796 29.1146 207.155 28.8802 207.561 28.711C207.979 28.5286 208.417 28.4375 208.875 28.4375C209.346 28.4375 209.784 28.5286 210.19 28.711C210.595 28.8802 210.948 29.1146 211.249 29.414C211.55 29.7135 211.784 30.0651 211.955 30.4687C212.125 30.8724 212.21 31.3021 212.21 31.7577Z" fill="#262626"/>
<path d="M8.69563 50.4063C9.02715 49.8837 9.48294 49.4575 10.063 49.1275C10.6432 48.7975 11.2832 48.6325 11.983 48.6325C12.8947 48.6325 13.622 48.9028 14.1654 49.4437C14.7179 49.9753 14.9942 50.6996 14.9942 51.6162C14.9942 51.8913 14.9665 52.18 14.9112 52.4825C14.7732 53.2525 14.4969 53.9308 14.0825 54.5175C13.6682 55.1041 13.157 55.5579 12.5493 55.8787C11.9508 56.1996 11.3062 56.36 10.6155 56.36C9.90656 56.36 9.32179 56.1996 8.8614 55.8787C8.40095 55.5487 8.09248 55.1225 7.93594 54.6L7.64588 56.25H6.69281L8.50225 46.075H9.45527L8.69563 50.4063ZM13.9305 52.4825C13.9767 52.2075 13.9997 51.9738 13.9997 51.7812C13.9997 51.0571 13.7832 50.4933 13.3504 50.09C12.9269 49.6775 12.3651 49.4712 11.6653 49.4712C11.1496 49.4712 10.657 49.595 10.1874 49.8425C9.71773 50.09 9.31719 50.4429 8.98569 50.9013C8.65419 51.3596 8.43319 51.8913 8.32269 52.4962C8.27665 52.7529 8.25363 52.9821 8.25363 53.1837C8.25363 53.8987 8.47002 54.4671 8.90277 54.8887C9.33558 55.3104 9.89727 55.5213 10.5879 55.5213C11.1221 55.5213 11.6193 55.4021 12.0797 55.1637C12.5493 54.9162 12.9452 54.5634 13.2675 54.105C13.599 53.6375 13.82 53.0966 13.9305 52.4825ZM17.5192 48.7425L18.9418 55.1088L22.547 48.7425H23.5553L17.1325 59.7837H16.1103L18.2098 56.195L16.4418 48.7425H17.5192ZM28.7189 55.4937H32.1858L32.0477 56.25H27.6139L29.3128 46.6387H30.2797L28.7189 55.4937ZM38.0409 48.6325C38.6762 48.6325 39.2196 48.7563 39.6707 49.0038C40.1219 49.2421 40.4627 49.5721 40.6929 49.9938C40.9324 50.4153 41.052 50.8966 41.052 51.4375C41.052 51.685 41.0336 51.905 40.9967 52.0975C40.9415 52.3725 40.8862 52.62 40.831 52.84H34.574C34.5464 53.0141 34.5325 53.1791 34.5325 53.335C34.5325 54.0408 34.7444 54.5862 35.1679 54.9712C35.6007 55.3563 36.1486 55.5487 36.8116 55.5487C37.447 55.5487 38.0041 55.3975 38.4829 55.095C38.9617 54.7925 39.3117 54.3846 39.5327 53.8713H40.5686C40.2555 54.6046 39.7537 55.205 39.063 55.6725C38.3816 56.1309 37.5851 56.36 36.6735 56.36C35.7342 56.36 34.9792 56.0941 34.4082 55.5625C33.8466 55.0216 33.5657 54.2884 33.5657 53.3625C33.5657 53.0875 33.5932 52.7988 33.6485 52.4962C33.7867 51.7171 34.0629 51.0341 34.4772 50.4475C34.9009 49.8609 35.4212 49.4116 36.0381 49.1C36.655 48.7884 37.3227 48.6325 38.0409 48.6325ZM40.0022 52.125C40.0484 51.8683 40.0714 51.6529 40.0714 51.4788C40.0714 50.8279 39.8642 50.3284 39.4497 49.98C39.0354 49.6316 38.5059 49.4575 37.8614 49.4575C37.3917 49.4575 36.9405 49.5583 36.5077 49.76C36.0749 49.9616 35.6974 50.2641 35.3751 50.6675C35.0527 51.0708 34.8317 51.5566 34.7121 52.125H40.0022ZM44.8791 55.2738L48.5671 48.7425H49.6168L45.2521 56.25H44.1333L42.4481 48.7425H43.4841L44.8791 55.2738ZM54.187 48.6325C54.8223 48.6325 55.3656 48.7563 55.8168 49.0038C56.268 49.2421 56.6088 49.5721 56.839 49.9938C57.0785 50.4153 57.1981 50.8966 57.1981 51.4375C57.1981 51.685 57.1796 51.905 57.1428 52.0975C57.0876 52.3725 57.0323 52.62 56.9771 52.84H50.72C50.6924 53.0141 50.6786 53.1791 50.6786 53.335C50.6786 54.0408 50.8904 54.5862 51.314 54.9712C51.7468 55.3563 52.2946 55.5487 52.9576 55.5487C53.593 55.5487 54.1501 55.3975 54.629 55.095C55.1078 54.7925 55.4578 54.3846 55.6787 53.8713H56.7146C56.4016 54.6046 55.8997 55.205 55.2091 55.6725C54.5276 56.1309 53.7311 56.36 52.8195 56.36C51.8803 56.36 51.1253 56.0941 50.5543 55.5625C49.9926 55.0216 49.7118 54.2884 49.7118 53.3625C49.7118 53.0875 49.7393 52.7988 49.7946 52.4962C49.9328 51.7171 50.209 51.0341 50.6233 50.4475C51.0469 49.8609 51.5673 49.4116 52.1841 49.1C52.8011 48.7884 53.4688 48.6325 54.187 48.6325ZM56.1483 52.125C56.1944 51.8683 56.2174 51.6529 56.2174 51.4788C56.2174 50.8279 56.0103 50.3284 55.5958 49.98C55.1815 49.6316 54.652 49.4575 54.0074 49.4575C53.5378 49.4575 53.0866 49.5583 52.6538 49.76C52.221 49.9616 51.8435 50.2641 51.5211 50.6675C51.1988 51.0708 50.9778 51.5566 50.8581 52.125H56.1483ZM60.9423 46.075L59.1329 56.25H58.166L59.9754 46.075H60.9423ZM66.1694 55.3975H71.1005L70.9485 56.25H64.8849L65.023 55.48L71.2939 47.4912H66.5147L66.6805 46.6387H72.5922L72.4542 47.4087L66.1694 55.3975ZM77.2663 48.6325C77.9016 48.6325 78.445 48.7563 78.8961 49.0038C79.3473 49.2421 79.6881 49.5721 79.9183 49.9938C80.1578 50.4153 80.2774 50.8966 80.2774 51.4375C80.2774 51.685 80.2589 51.905 80.2221 52.0975C80.1669 52.3725 80.1116 52.62 80.0564 52.84H73.7993C73.7718 53.0141 73.7579 53.1791 73.7579 53.335C73.7579 54.0408 73.9698 54.5862 74.3933 54.9712C74.8261 55.3563 75.374 55.5487 76.037 55.5487C76.6723 55.5487 77.2295 55.3975 77.7083 55.095C78.1871 54.7925 78.537 54.3846 78.758 53.8713H79.794C79.4809 54.6046 78.979 55.205 78.2884 55.6725C77.607 56.1309 76.8105 56.36 75.8988 56.36C74.9596 56.36 74.2046 56.0941 73.6336 55.5625C73.0719 55.0216 72.791 54.2884 72.791 53.3625C72.791 53.0875 72.8186 52.7988 72.8739 52.4962C73.012 51.7171 73.2883 51.0341 73.7026 50.4475C74.1262 49.8609 74.6466 49.4116 75.2635 49.1C75.8804 48.7884 76.548 48.6325 77.2663 48.6325ZM79.2276 52.125C79.2738 51.8683 79.2968 51.6529 79.2968 51.4788C79.2968 50.8279 79.0895 50.3284 78.6751 49.98C78.2608 49.6316 77.7313 49.4575 77.0868 49.4575C76.6171 49.4575 76.1659 49.5583 75.7331 49.76C75.3003 49.9616 74.9228 50.2641 74.6005 50.6675C74.2781 51.0708 74.0571 51.5566 73.9375 52.125H79.2276ZM83.2757 50.2413C83.5796 49.7187 83.9755 49.3153 84.4636 49.0312C84.9515 48.7471 85.5179 48.605 86.1625 48.605L85.983 49.6087H85.7067C85.0437 49.6087 84.4728 49.7784 83.994 50.1175C83.515 50.4566 83.1835 51.0159 82.9995 51.795L82.2122 56.25H81.2453L82.5713 48.7425H83.5382L83.2757 50.2413ZM89.5642 56.36C88.9384 56.36 88.386 56.2362 87.9071 55.9887C87.4282 55.7321 87.0554 55.3746 86.7882 54.9162C86.5304 54.4488 86.4015 53.9034 86.4015 53.28C86.4015 52.4366 86.5949 51.6621 86.9816 50.9562C87.3684 50.2413 87.9071 49.6775 88.598 49.265C89.2884 48.8433 90.0575 48.6325 90.9044 48.6325C91.5303 48.6325 92.0828 48.7608 92.5619 49.0175C93.041 49.265 93.4141 49.6225 93.681 50.09C93.948 50.5483 94.0815 51.0891 94.0815 51.7125C94.0815 52.565 93.8835 53.3441 93.4874 54.05C93.0914 54.7558 92.5477 55.3196 91.8573 55.7412C91.1758 56.1537 90.412 56.36 89.5642 56.36ZM89.6747 55.5487C90.3289 55.5487 90.9132 55.3746 91.4295 55.0263C91.9537 54.6778 92.3595 54.215 92.645 53.6375C92.9394 53.06 93.087 52.4366 93.087 51.7675C93.087 51.0159 92.866 50.4429 92.424 50.0487C91.9908 49.6546 91.4383 49.4575 90.7665 49.4575C90.1123 49.4575 89.528 49.6316 89.0117 49.98C88.5052 50.3284 88.1097 50.7912 87.8242 51.3687C87.5387 51.9462 87.396 52.5696 87.396 53.2387C87.396 53.9812 87.6125 54.5541 88.0452 54.9575C88.4778 55.3516 89.0215 55.5487 89.6747 55.5487Z" fill="#262626"/>
</svg>
